<?xml version="1.0" standalone="no"?>
<!DOCTYPE svg PUBLIC "-//W3C//DTD SVG 20010904//EN"
 "http://www.w3.org/TR/2001/REC-SVG-20010904/DTD/svg10.dtd">
<svg version="1.0" xmlns="http://www.w3.org/2000/svg"
 width="50.000000pt" height="50.000000pt" viewBox="0 0 50.000000 50.000000"
 preserveAspectRatio="xMidYMid meet">

<g transform="translate(0.000000,50.000000) scale(0.100000,-0.100000)"
fill="#000000" stroke="none">
<path d="M0 384 c0 -124 9 -149 19 -51 1 5 5 6 10 2 6 -3 15 4 21 15 6 11 8
20 4 20 -3 0 -1 7 6 15 7 8 16 12 21 9 5 -3 9 0 9 6 0 6 4 9 9 5 6 -3 14 3 20
12 6 10 11 15 11 10 0 -6 110 61 110 68 0 1 -54 3 -120 4 l-120 2 0 -117z"/>
<path d="M265 490 c3 -5 12 -7 21 -3 9 3 14 0 12 -8 -2 -9 4 -13 15 -11 10 2
16 -3 15 -10 -2 -7 4 -12 14 -10 9 1 34 -14 54 -35 21 -21 34 -31 29 -23 -5 9
0 7 13 -4 12 -11 20 -21 17 -24 -2 -2 6 -13 18 -24 12 -11 16 -17 10 -13 -18
9 -16 -10 2 -25 13 -11 15 0 15 94 l0 106 -121 0 c-74 0 -118 -4 -114 -10z"/>
<path d="M205 454 c-160 -106 -185 -144 -185 -276 0 -70 3 -88 18 -101 10 -10
26 -17 35 -17 15 0 17 14 17 105 l0 105 160 0 160 0 0 -100 c0 -107 4 -115 48
-84 20 13 22 24 22 96 0 104 -21 151 -93 206 -61 46 -129 92 -137 92 -3 0 -23
-12 -45 -26z"/>
<path d="M491 264 c0 -11 3 -14 6 -6 3 7 2 16 -1 19 -3 4 -6 -2 -5 -13z"/>
<path d="M100 165 l0 -94 47 -27 c62 -37 149 -39 211 -4 l42 24 0 98 0 98
-150 0 -150 0 0 -95z"/>
<path d="M484 93 c-4 -10 -6 -22 -5 -26 1 -5 -2 -6 -7 -3 -5 3 -17 -1 -28 -8
-10 -8 -24 -12 -31 -9 -7 3 -25 -4 -40 -15 -15 -11 -37 -22 -48 -25 -11 -2 24
-5 78 -6 l97 -1 0 55 c0 58 -3 66 -16 38z m-99 -73 c-3 -5 -12 -10 -18 -10 -7
0 -6 4 3 10 19 12 23 12 15 0z"/>
<path d="M0 48 l0 -48 88 0 87 1 -24 20 c-13 11 -31 17 -38 15 -8 -4 -11 -1
-7 5 4 7 -6 9 -27 7 -26 -2 -39 3 -56 22 l-22 25 -1 -47z"/>
</g>
</svg>
